# xmcd
#
# Track frame offsets: 
#        150
#        13754
#        27561
#        40772
#        54246
#        68177
#        82721
#        96801
#        110269
#        124684
#        138771
#        151768
#        164925
#        178530
#        192110
#        204863
#        218516
#        232183
#        246017
#        258821
#        272840
#        286720
#        300794
#        314576
#        327608
#
# Disc length: 4556 seconds
#
# Revision: 3
# Processed by: cddbd v1.5.2PL0 Copyright (c) Steve Scherf et al.
# Submitted via: ExactAudioCopyFreeDBPlugin 1.0
#
DISCID=4d11ca19
DTITLE=Leadbelly - Important Recordings 1934-1949 [Disc B] Leadbelly i
DTITLE=n the Studio^ 1935
DYEAR=2006
DGENRE=Blues
TTITLE0=Roberta, Part 1
TTITLE1=Roberta, Part 2
TTITLE2=Packin' Trunk Blues
TTITLE3=C.C. Rider
TTITLE4=Becky Deem, She Was a Gamblin' Girl
TTITLE5=Honey, I'm All Out and Down
TTITLE6=Four Day Worry Blues
TTITLE7=You Can't Lose Me, Charlie
TTITLE8=New Black Snake Moan
TTITLE9=Alberta
TTITLE10=Baby, Don't You Love Me No More
TTITLE11=Ox Drivin' Blues
TTITLE12=Death Letter Blues, Part 1
TTITLE13=Death Letter Blues, Part 2
TTITLE14=Kansas City Papa
TTITLE15=Red River Blues
TTITLE16=Forth Worth and Dallas Blues
TTITLE17=You Don't Know My Mind
TTITLE18=Daddy I'm Coming Back to You
TTITLE19=My Friend Blind Lemon
TTITLE20=Mr. Tom Hughes' Town
TTITLE21=Shorty George
TTITLE22=Matchbox Blues
TTITLE23=Yellow Jacket
TTITLE24=T.B. Woman Blues
EXTD=
EXTT0=
EXTT1=
EXTT2=
EXTT3=
EXTT4=
EXTT5=
EXTT6=
EXTT7=
EXTT8=
EXTT9=
EXTT10=
EXTT11=
EXTT12=
EXTT13=
EXTT14=
EXTT15=
EXTT16=
EXTT17=
EXTT18=
EXTT19=
EXTT20=
EXTT21=
EXTT22=
EXTT23=
EXTT24=
PLAYORDER=
